<?xml version="1.0" encoding="UTF-8"?>
<svg width="129px" height="48px" viewBox="0 0 129 48" version="1.1" xmlns="http://www.w3.org/2000/svg" xmlns:xlink="http://www.w3.org/1999/xlink">
    <!-- Generator: Sketch 61 (89581) - https://sketch.com -->
    <title>logo-cete</title>
    <desc>Created with Sketch.</desc>
    <g id="Page-1" stroke="none" stroke-width="1" fill="none" fill-rule="evenodd">
        <g id="reporte19" transform="translate(-130.000000, -38.000000)" fill="#FFFFFF">
            <g id="logo-cete" transform="translate(130.000000, 38.000000)">
                <path d="M7.42936175,19.5940528 C6.3934453,19.5940528 5.42610869,19.4063606 4.5280738,19.03242 C3.62931703,18.6577576 2.84822881,18.1509887 2.18480915,17.5113915 C1.52066759,16.8717943 0.998738957,16.1195818 0.619023242,15.2525883 C0.238585634,14.3870386 0.0487277771,13.4630156 0.0487277771,12.4805192 C0.0487277771,11.4814193 0.238585634,10.5494555 0.619023242,9.68318386 C0.998738957,8.81691227 1.52066759,8.06036841 2.18480915,7.4128304 C2.84822881,6.76529238 3.62931703,6.2585235 4.5280738,5.89252375 C5.42610869,5.52580211 6.3934453,5.34244129 7.42936175,5.34244129 C8.22200025,5.34244129 8.97060329,5.44928145 9.67517085,5.66440556 C10.3790165,5.87880778 11.0229451,6.17694959 11.6055127,6.55883098 C12.1880804,6.94071238 12.6977368,7.39333928 13.135204,7.9174336 C13.5719492,8.4429717 13.9278425,9.02337366 14.2028837,9.6586395 L11.2655011,10.8201653 C10.9413712,10.0903315 10.4439869,9.50848576 9.7726264,9.07607185 C9.10054403,8.64221416 8.32739663,8.42492437 7.45390611,8.42492437 C6.85473492,8.42492437 6.3003211,8.53248643 5.79066465,8.74472297 C5.2802863,8.9576814 4.83560022,9.24571671 4.45516261,9.61027267 C4.074725,9.97482863 3.77874888,10.4036331 3.56867801,10.896686 C3.35788526,11.3904608 3.25321078,11.9174427 3.25321078,12.4797973 C3.25321078,13.0255484 3.35788526,13.5460333 3.56867801,14.0398081 C3.77874888,14.532861 4.074725,14.9616654 4.45516261,15.3262214 C4.83560022,15.6907774 5.28461766,15.9788127 5.80293683,16.1917711 C6.32053411,16.4040076 6.87855739,16.5108478 7.47772858,16.5108478 C8.40030782,16.5108478 9.18933686,16.2791201 9.8448157,15.8163867 C10.5002945,15.3529314 10.989738,14.7580916 11.3138679,14.0297016 L14.2519724,15.2128842 C13.9762093,15.84815 13.6203161,16.435049 13.1835708,16.9743031 C12.7461036,17.5142791 12.2400567,17.9791781 11.6661517,18.3682785 C11.0915249,18.7566569 10.4483182,19.0584082 9.73580986,19.2728104 C9.02330148,19.4872126 8.25520733,19.5940528 7.42936175,19.5940528" id="Fill-1"></path>
                <path d="M15.489658,1.60310777 L18.7670522,1.60310777 L18.7670522,7.33277246 C19.2528861,6.71771963 19.8556668,6.23260754 20.576116,5.87671429 C21.2958433,5.52009916 22.1094167,5.34251348 23.0161143,5.34251348 C24.7804208,5.34251348 26.1599583,5.86660779 27.1554487,6.91479642 C28.1509392,7.96370694 28.6490453,9.42481836 28.6490453,11.3002964 L28.6490453,19.5695806 L25.2980181,19.5695806 L25.2980181,11.6944499 C25.2980181,10.6029477 25.0309177,9.74461695 24.4974387,9.11945762 C23.9632379,8.49574208 23.1612148,8.18244052 22.0935351,8.18244052 C21.6401863,8.18244052 21.2113818,8.26545821 20.8063999,8.43221549 C20.4021398,8.59752899 20.049856,8.83864125 19.7502704,9.15555227 C19.4506848,9.4717414 19.2160696,9.86733876 19.0464247,10.3409006 C18.8767799,10.8166281 18.7915965,11.3537164 18.7915965,11.9550533 L18.7915965,19.5695806 L15.489658,19.5695806 L15.489658,1.60310777 Z" id="Fill-3"></path>
                <polygon id="Fill-5" points="30.5180263 19.569364 33.8199649 19.569364 33.8199649 5.36611938 30.5180263 5.36611938"></polygon>
                <path d="M42.6329067,19.5940528 C41.5969903,19.5940528 40.6303756,19.4063606 39.7316188,19.03242 C38.832862,18.6577576 38.0517738,18.1509887 37.389076,17.5113915 C36.7249345,16.8717943 36.2030058,16.1195818 35.8225682,15.2525883 C35.4421306,14.3870386 35.2522728,13.4630156 35.2522728,12.4805192 C35.2522728,11.4814193 35.4421306,10.5494555 35.8225682,9.68318386 C36.2030058,8.81691227 36.7249345,8.06036841 37.389076,7.4128304 C38.0517738,6.76529238 38.832862,6.2585235 39.7316188,5.89252375 C40.6303756,5.52580211 41.5969903,5.34244129 42.6329067,5.34244129 C43.4262671,5.34244129 44.1748702,5.44928145 44.8787158,5.66440556 C45.5825615,5.87880778 46.22649,6.17694959 46.8090577,6.55883098 C47.3916253,6.94071238 47.9012818,7.39333928 48.3387489,7.9174336 C48.7754942,8.4429717 49.1313875,9.02337366 49.4071506,9.6586395 L46.4690461,10.8201653 C46.1449161,10.0903315 45.6475319,9.50848576 44.9761714,9.07607185 C44.304089,8.64221416 43.5316635,8.42492437 42.6574511,8.42492437 C42.0582799,8.42492437 41.5038661,8.53248643 40.9942096,8.74472297 C40.4838313,8.9576814 40.0391452,9.24571671 39.6587076,9.61027267 C39.27827,9.97482863 38.9822939,10.4036331 38.7729449,10.896686 C38.5621521,11.3904608 38.4567558,11.9174427 38.4567558,12.4797973 C38.4567558,13.0255484 38.5621521,13.5460333 38.7729449,14.0398081 C38.9822939,14.532861 39.27827,14.9616654 39.6587076,15.3262214 C40.0391452,15.6907774 40.4881626,15.9788127 41.0064818,16.1917711 C41.5240791,16.4040076 42.0821024,16.5108478 42.6812736,16.5108478 C43.6045747,16.5108478 44.3928818,16.2791201 45.0483607,15.8163867 C45.7038395,15.3529314 46.1940049,14.7580916 46.5174129,14.0297016 L49.4555174,15.2128842 C49.1797543,15.84815 48.823861,16.435049 48.3871158,16.9743031 C47.9503705,17.5142791 47.4443235,17.9791781 46.8696967,18.3682785 C46.2950699,18.7566569 45.6518632,19.0584082 44.9393548,19.2728104 C44.2268465,19.4872126 43.4587523,19.5940528 42.6329067,19.5940528" id="Fill-7"></path>
                <path d="M57.637236,16.5831093 C58.2522889,16.5831093 58.8189749,16.4777129 59.3365721,16.2640326 C59.8548913,16.051796 60.2995774,15.755098 60.6720742,15.3746604 C61.044571,14.9949447 61.3398252,14.5531462 61.5585588,14.0521524 C61.7765705,13.5511587 61.8862982,13.0111828 61.8862982,12.4329465 C61.8862982,11.8713137 61.7765705,11.3385567 61.5585588,10.8368411 C61.3398252,10.3358473 61.044571,9.89765827 60.6720742,9.52588338 C60.2995774,9.15338659 59.8548913,8.86101993 59.3365721,8.6480615 C58.8189749,8.43510306 58.2522889,8.3282629 57.637236,8.3282629 C57.0380648,8.3282629 56.4757102,8.43510306 55.9501721,8.6480615 C55.4239121,8.86101993 54.9669538,9.14977713 54.5785754,9.51433309 C54.190197,9.87961094 53.88628,10.3120248 53.6675465,10.8144624 C53.4495348,11.3154561 53.339807,11.8554321 53.339807,12.4329465 C53.339807,13.0111828 53.4495348,13.5547682 53.6675465,14.0637027 C53.88628,14.5726373 54.190197,15.0137139 54.5785754,15.3862107 C54.9669538,15.7587075 55.4239121,16.051796 55.9501721,16.2640326 C56.4757102,16.4777129 57.0380648,16.5831093 57.637236,16.5831093 M57.1030352,19.594125 C56.2454263,19.594125 55.3993677,19.4338647 54.5663032,19.114788 C53.7325168,18.7942675 52.9839138,18.3300903 52.3204941,17.7215345 C51.6563526,17.1129787 51.1221518,16.3687071 50.7178917,15.4865538 C50.3129097,14.6051225 50.1107797,13.603135 50.1107797,12.4798695 C50.1107797,11.3407224 50.3093002,10.331516 50.7056195,9.44936272 C51.1019388,8.56720948 51.6281987,7.82221591 52.2836776,7.21366012 C52.9398783,6.60582622 53.6920908,6.14164902 54.5417589,5.82185043 C55.3914269,5.50205183 56.261308,5.34251348 57.1521239,5.34251348 C58.0905848,5.34251348 58.9561345,5.51143644 59.7494949,5.85144804 C60.5421334,6.19073775 61.1983342,6.65347116 61.7159314,7.23964827 L61.7159314,5.36633595 L64.9940475,5.36633595 L64.9940475,19.5695806 L61.7159314,19.5695806 L61.7159314,17.5511678 C61.1983342,18.1857117 60.5349145,18.6852617 59.7256725,19.0483739 C58.9157085,19.4122079 58.042218,19.594125 57.1030352,19.594125" id="Fill-8"></path>
                <path d="M72.2048201,19.5940528 C70.6339809,19.5940528 69.331686,19.3016861 68.2957695,18.7169528 C67.2591312,18.1336632 66.4585518,17.2890484 65.8918658,16.1838303 L68.926704,14.8187306 C69.2667156,15.4402805 69.7280052,15.9188955 70.3105729,16.2524101 C70.8938624,16.5866466 71.5731637,16.7526819 72.3499206,16.7526819 C73.1591626,16.7526819 73.7662746,16.5909779 74.1712566,16.2675699 C74.5755167,15.942718 74.7776467,15.5572272 74.7776467,15.1096535 C74.7776467,14.863488 74.6845225,14.6628017 74.498996,14.5083166 C74.3127476,14.3538315 74.0694697,14.2188375 73.770606,14.1033347 C73.4702985,13.9871099 73.1187366,13.8910981 72.7144765,13.8131337 C72.3094946,13.736613 71.8893528,13.6521515 71.4518857,13.5597492 C70.836111,13.4363055 70.2340522,13.2897613 69.6435437,13.1193945 C69.0523134,12.9497497 68.521722,12.7151344 68.0532135,12.4133832 C67.5832611,12.1123538 67.2028235,11.7268629 66.9119006,11.2561887 C66.6202559,10.7855145 66.4751554,10.195006 66.4751554,9.48538518 C66.4751554,8.94540922 66.6087056,8.42420248 66.8750841,7.92320874 C67.1421845,7.42149311 67.5182908,6.97752892 68.0041247,6.59203806 C68.4899587,6.2065472 69.0768577,5.90190836 69.7648218,5.67812153 C70.4520639,5.4543347 71.2172705,5.34244129 72.0589977,5.34244129 C73.4832926,5.34244129 74.6686409,5.60593223 75.6157645,6.13363601 C76.5628881,6.6606179 77.3114911,7.37745764 77.8615736,8.28632092 L75.0692915,9.60594131 C74.7776467,9.12949193 74.3733866,8.75338568 73.8557893,8.47617878 C73.3374702,8.19969376 72.7390209,8.0610903 72.0589977,8.0610903 C71.2822408,8.0610903 70.7068921,8.20835647 70.3351172,8.50144503 C69.9626204,8.79453359 69.776372,9.13454519 69.776372,9.52003604 C69.776372,9.9676097 70.0521352,10.2881302 70.6022176,10.4815975 C71.1523001,10.6743429 71.962264,10.8786387 73.0299438,11.0952066 C73.6125114,11.2027686 74.1994104,11.3457034 74.7906408,11.5232891 C75.3804274,11.7008748 75.9189595,11.9398214 76.4047935,12.2415726 C76.8906275,12.542602 77.2826154,12.9288148 77.582201,13.399489 C77.8817866,13.8701632 78.0312184,14.4606717 78.0312184,15.1710144 C78.0312184,15.6496295 77.9186031,16.1477356 77.6919287,16.6638891 C77.4645324,17.1814864 77.1129705,17.6601014 76.6357993,18.1004562 C76.1579061,18.5408109 75.5551255,18.8995917 74.8267354,19.1767986 C74.0983454,19.4554493 73.224133,19.5940528 72.2048201,19.5940528" id="Fill-9"></path>
                <path d="M90.7857682,8.22986889 C89.7982186,8.22986889 88.9449411,8.44788057 88.2252138,8.88390394 C87.5047646,9.3206492 86.9994395,9.89527602 86.7085166,10.6085063 L94.7662862,10.6085063 C94.5230082,9.82886187 94.0537778,9.23763151 93.357873,8.83481521 C92.66269,8.43127703 91.8050811,8.22986889 90.7857682,8.22986889 M90.9070462,19.5881332 C89.7909997,19.5881332 88.7709649,19.4040505 87.8491075,19.0387727 C86.9265283,18.672051 86.1382211,18.1688916 85.4827423,17.5300163 C84.8272634,16.8904191 84.3183289,16.1374847 83.9537729,15.2726569 C83.5899389,14.4071072 83.4072999,13.4823623 83.4072999,12.4998659 C83.4072999,11.5014879 83.5971578,10.5659146 83.9783173,9.69242409 C84.358033,8.81965546 84.8799616,8.0631116 85.5433813,7.42351441 C86.206801,6.78391722 86.9871673,6.27787023 87.8852022,5.90320777 C88.7832371,5.5292672 89.7498518,5.34229691 90.7857682,5.34229691 C91.8375663,5.34229691 92.8121219,5.51194176 93.7101567,5.85339715 C94.6081916,6.19485254 95.3806171,6.6727457 96.0274332,7.28707664 C96.6749713,7.90140757 97.1802964,8.62618814 97.5448523,9.45997455 C97.9086864,10.293761 98.0906034,11.2047899 98.0906034,12.1901738 L98.0906034,13.3509778 L86.5381498,13.3509778 C86.7648242,14.3536872 87.2578772,15.1629292 88.0187524,15.777982 C88.7796276,16.3930349 89.7419109,16.6998394 90.9070462,16.6998394 C91.8289036,16.6998394 92.6302048,16.473165 93.310228,16.0205381 C93.9888074,15.5679112 94.4991858,14.9607992 94.8384755,14.2006458 L97.5325801,15.7534377 C96.9175273,16.9026913 96.056309,17.82888 94.9482032,18.5320038 C93.8393756,19.2358495 92.4923233,19.5881332 90.9070462,19.5881332" id="Fill-10"></path>
                <path d="M99.5468782,5.36554187 L102.799006,5.36554187 L102.799006,7.30526834 C103.268237,6.71259419 103.863076,6.23831049 104.582804,5.87952968 C105.302531,5.52147075 106.124045,5.34244129 107.046624,5.34244129 C108.810209,5.34244129 110.189747,5.86509182 111.184515,6.91400234 C112.179284,7.96219096 112.676668,9.42330238 112.676668,11.2973366 L112.676668,19.5637333 L109.352351,19.5637333 L109.352351,11.6669458 C109.352351,10.5920471 109.08525,9.74237909 108.551049,9.11794165 C108.016849,8.49350421 107.216269,8.18092454 106.14859,8.18092454 C105.210129,8.18092454 104.4211,8.50577639 103.782224,9.1540363 C103.142627,9.8022962 102.82355,10.7342601 102.82355,11.9520935 L102.82355,19.5637333 L99.5468782,19.5637333 L99.5468782,5.36554187 Z" id="Fill-11"></path>
                <path d="M0,26.7213023 L2.42772614,26.7213023 L2.42772614,24.5599547 L5.72966469,22.3025953 L5.72966469,26.7213023 L8.61868045,26.7213023 L8.61868045,29.6586849 L5.72966469,29.6586849 L5.72966469,34.9761487 C5.72966469,35.5912015 5.76214988,36.0893077 5.82712025,36.4690234 C5.89136872,36.849461 6.02491893,37.1411058 6.22704896,37.3432358 C6.4299009,37.5453658 6.72082377,37.6796379 7.10126138,37.7438864 C7.48169899,37.8088568 7.98774598,37.8406201 8.61868045,37.8406201 L8.61868045,40.924547 L8.15739083,40.924547 C7.05650401,40.924547 6.13825613,40.8270914 5.40192527,40.6329022 C4.66487253,40.438713 4.07869541,40.1109735 3.64195015,39.6496839 C3.204483,39.1891162 2.89262523,38.5812823 2.70709873,37.8290698 C2.52085033,37.0761354 2.42772614,36.1333432 2.42772614,35.000693 L2.42772614,29.6586849 L0,29.6586849 L0,26.7213023 Z" id="Fill-12"></path>
                <path d="M16.631043,29.5863512 C15.6434934,29.5863512 14.789494,29.8043629 14.0697666,30.2403863 C13.3493174,30.6764096 12.8432704,31.2524802 12.5523476,31.9657105 L20.6130047,31.9657105 C20.3697268,31.1853442 19.9004963,30.5941138 19.2045915,30.1912975 C18.5086867,29.7877594 17.6510778,29.5863512 16.631043,29.5863512 M16.752321,40.948225 C15.6355525,40.948225 14.6155177,40.7648642 13.6936604,40.3988645 C12.7710811,40.0321428 11.9820521,39.5289834 11.3258514,38.8901081 C10.6703725,38.249789 10.1607161,37.4968546 9.79688201,36.6313049 C9.43232605,35.7657552 9.25040901,34.8402884 9.25040901,33.8585139 C9.25040901,32.859414 9.44026687,31.9231188 9.82070448,31.0496283 C10.2011421,30.1754159 10.7230707,29.4195939 11.3872123,28.7792748 C12.04991,28.1396777 12.8309983,27.6329088 13.729755,27.2589682 C14.6285118,26.8843057 15.5951265,26.6966136 16.631043,26.6966136 C17.6828411,26.6966136 18.6588404,26.8669803 19.5568753,27.2091576 C20.4549102,27.550613 21.2280576,28.0285061 21.8755956,28.6428371 C22.5224117,29.2578899 23.0284587,29.9819486 23.3930147,30.8171788 C23.7568487,31.6509652 23.9394876,32.5612722 23.9394876,33.5481 L23.9394876,34.7089039 L12.3819808,34.7089039 C12.6086552,35.7123352 13.10243,36.5215772 13.8633052,37.13663 C14.6241805,37.7524048 15.5871857,38.0592093 16.752321,38.0592093 C17.6749002,38.0592093 18.4762015,37.8332568 19.1562247,37.379908 C19.835526,36.9265592 20.3459043,36.3194472 20.6859159,35.5585719 L23.3807425,37.1128076 C22.7656896,38.2627831 21.9030275,39.1889718 20.7949218,39.8920956 C19.6860941,40.5966632 18.3383199,40.948225 16.752321,40.948225" id="Fill-13"></path>
                <path d="M32.3152511,40.9483694 C31.2786128,40.9483694 30.311998,40.7613991 29.4132413,40.3874586 C28.5152064,40.0127961 27.7341182,39.5060272 27.0706985,38.8657081 C26.406557,38.2261109 25.8846283,37.4738984 25.5049126,36.6076268 C25.124475,35.7413553 24.9338952,34.8173322 24.9338952,33.8348359 C24.9338952,32.8364578 25.124475,31.904494 25.5049126,31.0375005 C25.8846283,30.1719508 26.406557,29.4146851 27.0706985,28.7678689 C27.7341182,28.1203309 28.5152064,27.6128401 29.4132413,27.2468404 C30.311998,26.8808407 31.2786128,26.6967579 32.3152511,26.6967579 C33.1078896,26.6967579 33.8564926,26.80432 34.5603383,27.0187222 C35.2649059,27.2338463 35.9081125,27.5319881 36.4914021,27.9131476 C37.0739697,28.295029 37.5836262,28.7483778 38.0203714,29.2724721 C38.4578386,29.7980102 38.8130099,30.3776903 39.0887731,31.013678 L36.1506686,32.1752039 C35.8272605,31.4453701 35.3291544,30.8635243 34.6577939,30.4311104 C33.9857115,29.9972527 33.213286,29.7799629 32.3390736,29.7799629 C31.7406243,29.7799629 31.1862105,29.8868031 30.6758321,30.0997615 C30.1661757,30.311998 29.7207677,30.6007552 29.341052,30.9645893 C28.9606144,31.3291453 28.6646382,31.7586716 28.4545674,32.2510026 C28.2437746,32.7454993 28.1391001,33.2724812 28.1391001,33.8348359 C28.1391001,34.380587 28.2437746,34.9010718 28.4545674,35.3941247 C28.6646382,35.8871776 28.9606144,36.316704 29.341052,36.680538 C29.7207677,37.0458159 30.1697851,37.3338512 30.6888262,37.5468096 C31.2064235,37.7590462 31.7644468,37.8651644 32.3636179,37.8651644 C33.2861972,37.8651644 34.0752262,37.6334368 34.7307051,37.1714253 C35.3861839,36.70797 35.8756274,36.1124083 36.1997573,35.3840182 L39.1378618,36.5679227 C38.8620987,37.2031886 38.5062054,37.7900876 38.0694602,38.3293416 C37.631993,38.8693176 37.125946,39.3334948 36.5520411,39.7225951 C35.9766924,40.1116954 35.3334857,40.4127248 34.6216992,40.6278489 C33.9091908,40.8422511 33.1403748,40.9483694 32.3152511,40.9483694" id="Fill-14"></path>
                <path d="M40.3756195,26.7213023 L43.6284693,26.7213023 L43.6284693,28.6617507 C44.0984217,28.0683546 44.6925396,27.593349 45.4137107,27.2352901 C46.133438,26.8765093 46.9549523,26.6967579 47.8775315,26.6967579 C49.6411161,26.6967579 51.0220974,27.2208523 52.0168659,28.2697628 C53.0123564,29.3179514 53.5104625,30.7797847 53.5104625,32.6545408 L53.5104625,40.924547 L50.1839796,40.924547 L50.1839796,33.02415 C50.1839796,31.9492514 49.9168792,31.0988614 49.3834003,30.474424 C48.8484776,29.8499865 48.0471764,29.5374069 46.9787747,29.5374069 C46.0403138,29.5374069 45.2512848,29.8622587 44.6116876,30.5097967 C43.9720904,31.1587785 43.6530137,32.0914643 43.6530137,33.3092978 L43.6530137,40.924547 L40.3756195,40.924547 L40.3756195,26.7213023 Z" id="Fill-15"></path>
                <path d="M62.29886,37.8655254 C62.8814277,37.8655254 63.4235693,37.7594071 63.9252849,37.5471706 C64.4270006,37.3342121 64.8644677,37.0454549 65.2369645,36.6801771 C65.6087394,36.316343 65.9003842,35.8875386 66.110455,35.3937638 C66.3212478,34.9014328 66.4266442,34.3809479 66.4266442,33.8344749 C66.4266442,33.2728422 66.3212478,32.7451384 66.110455,32.2513636 C65.9003842,31.7583107 65.6087394,31.3287843 65.2369645,30.9642284 C64.8644677,30.6011162 64.4270006,30.3116371 63.9252849,30.0994006 C63.4235693,29.8864421 62.8814277,29.7803239 62.29886,29.7803239 C61.7162924,29.7803239 61.1698194,29.8864421 60.6601629,30.0994006 C60.1497846,30.3116371 59.7130393,30.6011162 59.3492053,30.9642284 C58.9846493,31.3287843 58.6973359,31.7583107 58.487265,32.2513636 C58.2764723,32.7451384 58.1717978,33.2728422 58.1717978,33.8344749 C58.1717978,34.3809479 58.2764723,34.9014328 58.487265,35.3937638 C58.6973359,35.8875386 58.9846493,36.316343 59.3492053,36.6801771 C59.7130393,37.0454549 60.1497846,37.3342121 60.6601629,37.5471706 C61.1698194,37.7594071 61.7162924,37.8655254 62.29886,37.8655254 M62.29886,40.9487304 C61.2788252,40.9487304 60.3201513,40.7653695 59.4221165,40.3986479 C58.5233597,40.0319263 57.7422715,39.5258793 57.0795737,38.8776194 C56.4154321,38.2300814 55.8927816,37.4735375 55.5130659,36.6079878 C55.1326283,35.7417162 54.9427704,34.8169713 54.9427704,33.8344749 C54.9427704,32.8360969 55.1326283,31.904133 55.5130659,31.0378615 C55.8927816,30.1723118 56.4154321,29.415046 57.0795737,28.767508 C57.7422715,28.1206919 58.5233597,27.6132011 59.4221165,27.2464795 C60.3201513,26.8804797 61.2788252,26.696397 62.29886,26.696397 C63.3188948,26.696397 64.2732374,26.8804797 65.1640533,27.2464795 C66.0541474,27.6132011 66.8352356,28.1206919 67.5065961,28.767508 C68.1786785,29.415046 68.7042166,30.1723118 69.0846542,31.0378615 C69.4650918,31.904133 69.6556715,32.8360969 69.6556715,33.8344749 C69.6556715,34.8169713 69.4650918,35.7417162 69.0846542,36.6079878 C68.7042166,37.4735375 68.1786785,38.2300814 67.5065961,38.8776194 C66.8352356,39.5258793 66.0541474,40.0319263 65.1640533,40.3986479 C64.2732374,40.7653695 63.3188948,40.9487304 62.29886,40.9487304" id="Fill-16"></path>
                <polygon id="Fill-17" points="71.0884126 40.9244026 74.3903511 40.9244026 74.3903511 22.9579297 71.0884126 22.9579297"></polygon>
                <path d="M83.1787486,37.8655254 C83.7613163,37.8655254 84.3034579,37.7594071 84.8051735,37.5471706 C85.3068892,37.3342121 85.7436344,37.0454549 86.1161312,36.6801771 C86.488628,36.316343 86.7802728,35.8875386 86.9903436,35.3937638 C87.2004145,34.9014328 87.3058109,34.3809479 87.3058109,33.8344749 C87.3058109,33.2728422 87.2004145,32.7451384 86.9903436,32.2513636 C86.7802728,31.7583107 86.488628,31.3287843 86.1161312,30.9642284 C85.7436344,30.6011162 85.3068892,30.3116371 84.8051735,30.0994006 C84.3034579,29.8864421 83.7613163,29.7803239 83.1787486,29.7803239 C82.596181,29.7803239 82.049708,29.8864421 81.5393296,30.0994006 C81.0296732,30.3116371 80.5929279,30.6011162 80.2290938,30.9642284 C79.8645379,31.3287843 79.5772245,31.7583107 79.3664317,32.2513636 C79.1563608,32.7451384 79.0509645,33.2728422 79.0509645,33.8344749 C79.0509645,34.3809479 79.1563608,34.9014328 79.3664317,35.3937638 C79.5772245,35.8875386 79.8645379,36.316343 80.2290938,36.6801771 C80.5929279,37.0454549 81.0296732,37.3342121 81.5393296,37.5471706 C82.049708,37.7594071 82.596181,37.8655254 83.1787486,37.8655254 M83.1787486,40.9487304 C82.1587138,40.9487304 81.2000399,40.7653695 80.3012831,40.3986479 C79.4032482,40.0319263 78.62216,39.5258793 77.9587404,38.8776194 C77.2945988,38.2300814 76.7726702,37.4735375 76.3929545,36.6079878 C76.0125169,35.7417162 75.822659,34.8169713 75.822659,33.8344749 C75.822659,32.8360969 76.0125169,31.904133 76.3929545,31.0378615 C76.7726702,30.1723118 77.2945988,29.415046 77.9587404,28.767508 C78.62216,28.1206919 79.4032482,27.6132011 80.3012831,27.2464795 C81.2000399,26.8804797 82.1587138,26.696397 83.1787486,26.696397 C84.1980615,26.696397 85.1531259,26.8804797 86.04322,27.2464795 C86.9333141,27.6132011 87.7144023,28.1206919 88.3864847,28.767508 C89.0578451,29.415046 89.5841051,30.1723118 89.9645427,31.0378615 C90.3449804,31.904133 90.5348382,32.8360969 90.5348382,33.8344749 C90.5348382,34.8169713 90.3449804,35.7417162 89.9645427,36.6079878 C89.5841051,37.4735375 89.0578451,38.2300814 88.3864847,38.8776194 C87.7144023,39.5258793 86.9333141,40.0319263 86.04322,40.3986479 C85.1531259,40.7653695 84.1980615,40.9487304 83.1787486,40.9487304" id="Fill-18"></path>
                <path d="M99.1538074,37.9381478 C99.7688603,37.9381478 100.334824,37.8320296 100.853144,37.6190711 C101.371463,37.4068346 101.816149,37.1101366 102.188646,36.729699 C102.561142,36.3492613 102.856397,35.9081847 103.07513,35.4064691 C103.293142,34.9054754 103.40287,34.3654994 103.40287,33.787985 C103.40287,33.2256304 103.293142,32.6928733 103.07513,32.1918796 C102.856397,31.690164 102.561142,31.2526968 102.188646,30.8802 C101.816149,30.5084251 101.371463,30.2153366 100.853144,30.0031 C100.334824,29.7894197 99.7688603,29.6825795 99.1538074,29.6825795 C98.5546362,29.6825795 97.9922816,29.7894197 97.4667435,30.0031 C96.9404835,30.2153366 96.4828033,30.5040938 96.0944249,30.8686497 C95.7060465,31.2339276 95.4028514,31.6670634 95.1841178,32.168779 C94.9661062,32.6704946 94.8563784,33.2104706 94.8563784,33.787985 C94.8563784,34.3654994 94.9661062,34.9098067 95.1841178,35.4187413 C95.4028514,35.9276758 95.7060465,36.3680306 96.0944249,36.7412492 C96.4828033,37.1130241 96.9404835,37.4068346 97.4667435,37.6190711 C97.9922816,37.8320296 98.5546362,37.9381478 99.1538074,37.9381478 L99.1538074,37.9381478 Z M103.257047,38.7639934 C102.738728,39.4440166 102.075308,39.9774955 101.266066,40.365874 C100.456824,40.7549743 99.574671,40.9484416 98.6196066,40.9484416 C97.7619977,40.9484416 96.9159391,40.7889033 96.0828746,40.4691047 C95.2483663,40.1493061 94.5004852,39.6851289 93.8370655,39.0765731 C93.172924,38.4680173 92.6387232,37.7237456 92.2344631,36.8415924 C91.8294811,35.960161 91.6273511,34.9574517 91.6273511,33.8341862 C91.6273511,32.6957609 91.8258716,31.6858326 92.2221909,30.8044013 C92.6185102,29.922248 93.1447701,29.1772545 93.800249,28.5686987 C94.4557278,27.9608648 95.2086622,27.4959657 96.0583303,27.176889 C96.9079983,26.8563685 97.7778794,26.6968301 98.6686953,26.6968301 C99.6064343,26.6968301 100.472706,26.8801909 101.266066,27.2447469 C102.058705,27.6107467 102.714906,28.1052434 103.232503,28.7267932 L103.232503,26.7213745 L106.510619,26.7213745 L106.510619,40.3846432 C106.510619,41.3758023 106.352524,42.301991 106.037057,43.165375 C105.72159,44.0280371 105.255969,44.7831372 104.640916,45.4306752 C104.025863,46.0774913 103.260657,46.5893135 102.34674,46.9646978 C101.432102,47.3400822 100.37525,47.5284962 99.1783518,47.5284962 C98.2557725,47.5284962 97.4176548,47.4274312 96.6654423,47.2245793 C95.9125079,47.0217274 95.236816,46.7387453 94.6383667,46.3749112 C94.0391956,46.0110772 93.5129356,45.5815508 93.0603087,45.0884979 C92.6069599,44.5947231 92.2178595,44.0482501 91.8944515,43.4498008 L94.8080116,41.6775535 C95.3256089,42.6318961 95.9081765,43.3436826 96.5557145,43.8136349 C97.2032526,44.2828653 98.0933466,44.5174806 99.2267186,44.5174806 C99.8417714,44.5174806 100.400517,44.4041434 100.902232,44.1781909 C101.403226,43.9507946 101.828421,43.6519309 102.176373,43.2794341 C102.524326,42.9069373 102.791426,42.4694701 102.977675,41.9691983 C103.163923,41.4667608 103.257047,40.9491635 103.257047,40.4149627 L103.257047,38.7639934 Z" id="Fill-19"></path>
                <path d="M111.608627,21.3797273 L114.66801,21.3797273 L111.659882,25.5075114 L108.65031,25.5075114 L111.608627,21.3797273 Z M108.428689,40.9242582 L111.729905,40.9242582 L111.729905,26.7210135 L108.428689,26.7210135 L108.428689,40.9242582 Z" id="Fill-20"></path>
                <path d="M120.68867,37.9381478 C121.303722,37.9381478 121.869686,37.8320296 122.388006,37.6190711 C122.906325,37.4068346 123.351011,37.1101366 123.723508,36.729699 C124.095283,36.3492613 124.391259,35.9081847 124.609992,35.4064691 C124.828004,34.9054754 124.937732,34.3654994 124.937732,33.787985 C124.937732,33.2256304 124.828004,32.6928733 124.609992,32.1918796 C124.391259,31.690164 124.095283,31.2526968 123.723508,30.8802 C123.351011,30.5084251 122.906325,30.2153366 122.388006,30.0031 C121.869686,29.7894197 121.303722,29.6825795 120.68867,29.6825795 C120.089498,29.6825795 119.527144,29.7894197 119.001606,30.0031 C118.475346,30.2153366 118.017665,30.5040938 117.629287,30.8686497 C117.240909,31.2339276 116.937714,31.6670634 116.71898,32.168779 C116.500246,32.6704946 116.391241,33.2104706 116.391241,33.787985 C116.391241,34.3654994 116.500246,34.9098067 116.71898,35.4187413 C116.937714,35.9276758 117.240909,36.3680306 117.629287,36.7412492 C118.017665,37.1130241 118.475346,37.4068346 119.001606,37.6190711 C119.527144,37.8320296 120.089498,37.9381478 120.68867,37.9381478 M120.154469,40.9484416 C119.296138,40.9484416 118.450801,40.7889033 117.617737,40.4691047 C116.783228,40.1493061 116.035347,39.6851289 115.371206,39.0765731 C114.707786,38.4680173 114.173585,37.7237456 113.769325,36.8415924 C113.364343,35.960161 113.162213,34.9574517 113.162213,33.8341862 C113.162213,32.6957609 113.360012,31.6858326 113.757053,30.8044013 C114.153372,29.922248 114.679632,29.1772545 115.335111,28.5686987 C115.99059,27.9608648 116.743524,27.4959657 117.593192,27.176889 C118.44286,26.8563685 119.312741,26.6968301 120.202836,26.6968301 C121.141296,26.6968301 122.007568,26.866475 122.800928,27.2057647 C123.593567,27.5457763 124.249046,28.0085097 124.767365,28.5946868 L124.767365,26.7213745 L128.044759,26.7213745 L128.044759,40.9246191 L124.767365,40.9246191 L124.767365,38.9062063 C124.249046,39.5407503 123.585626,40.0395783 122.776384,40.4026905 C121.967142,40.7672465 121.09293,40.9484416 120.154469,40.9484416" id="Fill-21"></path>
                <polygon id="Fill-22" points="30.4954311 3.46140472 30.4954311 1.80538219 33.8377956 -7.21892994e-05 33.8377956 3.46140472"></polygon>
            </g>
        </g>
    </g>
</svg>