<?xml version="1.0" encoding="UTF-8"?>
<svg width="116px" height="116px" viewBox="0 0 116 116" version="1.1" xmlns="http://www.w3.org/2000/svg" xmlns:xlink="http://www.w3.org/1999/xlink">
    <!-- Generator: Sketch 61 (89581) - https://sketch.com -->
    <title>icon-proyectos</title>
    <desc>Created with Sketch.</desc>
    <g id="icon-proyectos" stroke="none" stroke-width="1" fill="none" fill-rule="evenodd">
        <path d="M61.9849543,55.6028405 C61.5873499,56.0008951 61.2392773,56.4453295 60.9492917,56.9271378 L57.6905568,62.3427528 L55.27296,64.7603495 C54.5777152,65.4555943 54.5979782,66.5943729 55.3332986,67.2635011 C56.0217891,67.8903021 57.0943754,67.8295132 57.7526966,67.1711919 L60.1356211,64.7882673 L65.5516864,61.5286319 C66.0330444,61.2386462 66.477929,60.8914742 66.8755333,60.4938698 L68.7221649,58.6467881 L63.8311355,53.756209 L61.9849543,55.6028405 Z" id="Path" fill="#FFFFFF" fill-rule="nonzero"></path>
        <path d="M89.5074634,37.8619398 C90.8578774,36.5115258 90.8578774,34.3217748 89.5074634,32.9713607 C88.1565991,31.6204964 85.9672983,31.6204964 84.616434,32.9713607 L82.1713697,35.4164252 L87.0619487,40.3070041 L89.5074634,37.8619398 Z" id="Path" fill="#FFFFFF" fill-rule="nonzero"></path>
        <polygon id="Path" fill="#FFFFFF" fill-rule="nonzero" points="66.2762 51.3111447 79.7254048 37.8619398 84.6159838 42.7525188 71.1667789 56.2017237"></polygon>
        <polygon id="Path" fill="#FFFFFF" fill-rule="nonzero" points="41.9899115 38.8746377 41.9899115 29.5131482 32.5131482 38.8746377"></polygon>
        <path d="M38.5015296,87.5202222 C42.322224,87.5363717 45.4481241,84.3159112 45.4481241,80.4952167 L45.4481241,75.4164173 C45.4481241,74.4613563 46.2217191,73.687311 47.1763298,73.687311 C54.005399,73.687311 78.1989281,73.687311 76.687311,73.687311 L76.687311,55.5713203 C75.8637341,56.3948972 68.9729753,63.285656 69.3201475,62.9384838 C69.3201475,62.9384838 67.8202378,64.19839 67.337529,64.4888258 L62.2807937,67.5327733 L60.1626385,69.6509285 C58.3542815,71.4592855 55.4161516,71.7528733 53.2507162,69.9985509 L40.308986,69.9985509 C39.37734,69.9985509 38.5762775,69.2821425 38.5335001,68.3513971 C38.488021,67.3580615 39.2778262,66.5403383 40.2608052,66.5403383 L51.3626582,66.5403383 C51.3428455,66.3548196 51.3081734,66.172453 51.3081734,65.983332 C51.3081734,64.9337104 51.6211235,63.9327199 52.1974923,63.0821258 L40.308986,63.0821258 C39.37734,63.0821258 38.5762775,62.3657174 38.5335001,61.434972 C38.488021,60.4416364 39.2778262,59.6239132 40.2608052,59.6239132 L55.2905212,59.6239132 L57.3717528,56.1657006 L40.308986,56.1657006 C39.37734,56.1657006 38.5762775,55.4492922 38.5335001,54.5185468 C38.488021,53.5252112 39.2778262,52.707488 40.2608052,52.707488 L59.9906284,52.707488 L63.448841,49.2492755 L40.308986,49.2492755 C39.37734,49.2492755 38.5762775,48.5328671 38.5335001,47.6021217 C38.488021,46.6087861 39.2778262,45.7910629 40.2608052,45.7910629 L66.9070535,45.7910629 L70.3652661,42.3328503 L50.6836238,42.3328503 C49.7519777,42.3328503 48.9509152,41.6164419 48.9081378,40.6856965 C48.8626587,39.6923609 49.652464,38.8746377 50.6354429,38.8746377 L73.8234787,38.8746377 C74.1693,38.5288165 77.0331322,35.6649842 76.687311,36.0108054 L76.687311,30.2291063 C76.687311,29.2740453 75.9132657,28.5 74.9582047,28.5 L45.4481241,28.5 L45.4481241,40.603744 C45.4481241,41.558805 44.6740788,42.3328503 43.7190178,42.3328503 L31.5,42.3328503 L31.5,80.6037361 C31.5,84.4136237 34.6952443,87.5039509 38.5015296,87.5202222 Z" id="Path" fill="#FFFFFF" fill-rule="nonzero"></path>
        <path d="M48.9063366,77.1455236 L48.9063366,80.6037361 C48.9063366,83.2703422 47.8670717,85.6807344 46.2082104,87.5201613 L78.4164173,87.5201613 C81.2811501,87.5201613 83.6037361,85.1975752 83.6037361,82.3328424 L83.6037361,78.8746299 C83.6037361,77.9195688 82.8296909,77.1455236 81.8746299,77.1455236 L48.9063366,77.1455236 Z" id="Path" fill="#FFFFFF" fill-rule="nonzero"></path>
    </g>
</svg>