<?xml version="1.0" encoding="UTF-8"?>
<svg width="116px" height="116px" viewBox="0 0 116 116" version="1.1" xmlns="http://www.w3.org/2000/svg" xmlns:xlink="http://www.w3.org/1999/xlink">
    <!-- Generator: Sketch 61 (89581) - https://sketch.com -->
    <title>icon-charlas</title>
    <desc>Created with Sketch.</desc>
    <g id="icon-charlas" stroke="none" stroke-width="1" fill="none" fill-rule="evenodd">
        <path d="M58.7472581,48.9257573 L80.4243188,48.9257573 L80.4243188,40.7898449 C80.4243188,34.2887683 75.1239849,29 68.6085526,29 L34.8157662,29 C28.3003339,29 23,34.2887683 23,40.7898449 L23,52.8464932 C23,58.6507981 27.2252165,63.4888704 32.7676229,64.4593549 L32.7676229,73.0310818 C32.7676229,73.8708218 33.2707126,74.6271194 34.040082,74.9454766 C34.2911006,75.0491155 34.5542228,75.0996061 34.81524,75.0996061 C35.3546405,75.0996061 35.8840425,74.8843562 36.2766208,74.4809622 L45.8363772,64.6570657 L45.8363772,61.8625383 C45.8358509,54.7289991 51.6282234,48.9257573 58.7472581,48.9257573 Z" id="Path" fill="#FFFFFF" fill-rule="nonzero"></path>
        <path d="M83.6222181,52.8613747 L59.3396286,52.8613747 C54.3551882,52.8613747 50.300086,56.8990364 50.300086,61.8625383 L50.300086,70.5012319 C50.300086,75.4647336 54.3551882,79.5029269 59.3396286,79.5029269 L75.4587126,79.5029269 L82.1809786,86.3914532 C82.5683348,86.7884696 83.0907907,87.0005305 83.6227458,87 C83.8802797,87 84.1399244,86.9505713 84.387959,86.8485269 C85.1473671,86.5354846 85.6439641,85.7908796 85.6439641,84.9644265 L85.6439641,79.2759845 C89.6589585,78.3597111 92.6622884,74.7732767 92.6622884,70.5012319 L92.6622884,61.8625383 C92.6622884,56.8990364 88.6071862,52.8613747 83.6222181,52.8613747 Z" id="Path" fill="#FFFFFF" fill-rule="nonzero"></path>
    </g>
</svg>