<?xml version="1.0" encoding="UTF-8"?>
<svg width="69px" height="34px" viewBox="0 0 69 34" version="1.1" xmlns="http://www.w3.org/2000/svg" xmlns:xlink="http://www.w3.org/1999/xlink">
    <!-- Generator: Sketch 61 (89581) - https://sketch.com -->
    <title>iconocet</title>
    <desc>Created with Sketch.</desc>
    <g id="Page-1" stroke="none" stroke-width="1" fill="none" fill-rule="evenodd">
        <g id="reporte19" transform="translate(-79.000000, -9506.000000)" fill="#6300AC">
            <g id="iconocet" transform="translate(79.000000, 9506.241765)">
                <path d="M13.1118941,33.0878676 C11.2712176,33.0878676 9.55365882,32.7557206 7.95786471,32.09075 C6.36207059,31.4251029 4.97395294,30.5240441 3.79554118,29.38825 C2.61645294,28.2517794 1.68833529,26.9150735 1.01389412,25.3761029 C0.337423529,23.8384853 -0.000135294118,22.1960147 -0.000135294118,20.4493676 C-0.000135294118,18.6756618 0.337423529,17.0203382 1.01389412,15.4813676 C1.68833529,13.94375 2.61645294,12.5989265 3.79554118,11.4489265 C4.97395294,10.2989265 6.36207059,9.39786765 7.95786471,8.74710294 C9.55365882,8.09566176 11.2712176,7.76960294 13.1118941,7.76960294 C14.5203059,7.76960294 15.8509235,7.96036765 17.1017176,8.34189706 C18.3525118,8.72342647 19.4957471,9.25310294 20.5300706,9.93092647 C21.5657471,10.6094265 22.4708647,11.41375 23.2474529,12.3459265 C24.0240412,13.2781029 24.6558647,14.3097206 25.1456294,15.43875 L19.9266588,17.5013088 C19.3509824,16.2051912 18.4668353,15.1722206 17.2742176,14.4023971 C16.0809235,13.6325735 14.7076882,13.2476618 13.1545118,13.2476618 C12.0911,13.2476618 11.1068353,13.4370735 10.2003647,13.8138676 C9.29457059,14.1913382 8.50377647,14.7047794 7.82798235,15.3514853 C7.15218824,15.9988676 6.62724706,16.76125 6.25383529,17.6372794 C5.87974706,18.5139853 5.69371765,19.4515735 5.69371765,20.4486912 C5.69371765,21.4201029 5.87974706,22.3441618 6.25383529,23.2201912 C6.62724706,24.0968971 7.15218824,24.8592794 7.82798235,25.5059853 C8.50377647,26.1540441 9.30201176,26.6668088 10.2220118,27.0442794 C11.1420118,27.42175 12.1337176,27.6098088 13.1978059,27.6098088 C14.8375706,27.6098088 16.2392176,27.1991912 17.4034235,26.3772794 C18.5676294,25.5546912 19.4375706,24.4966912 20.0125706,23.2026029 L25.2322176,25.3050735 C24.7424529,26.4334265 24.1106294,27.4772206 23.3340412,28.4351029 C22.5574529,29.3943382 21.6591,30.2189559 20.6383059,30.9096324 C19.6175118,31.6003088 18.4742765,32.1360735 17.2099529,32.5169265 C15.9436,32.8977794 14.5784824,33.0878676 13.1118941,33.0878676" id="Fill-2"></path>
                <path d="M39.5084529,12.9024588 C37.7536882,12.9024588 36.2370412,13.2900765 34.9578353,14.0646353 C33.6779529,14.8398706 32.7796,15.8620176 32.2627765,17.1297235 L46.5816294,17.1297235 C46.1500412,15.7436353 45.3159529,14.6930765 44.0800412,13.9766941 C42.8434529,13.2609882 41.3200412,12.9024588 39.5084529,12.9024588 M39.7235706,33.0876647 C37.7401588,33.0876647 35.9285706,32.7622824 34.2894824,32.1115176 C32.6503941,31.4607529 31.2487471,30.5657824 30.0838647,29.4299882 C28.9196588,28.2935176 28.0138647,26.9554588 27.3664824,25.4178412 C26.7197765,23.8802235 26.3964235,22.2377529 26.3964235,20.4917824 C26.3964235,18.7180765 26.7339824,17.0546353 27.4097765,15.5028118 C28.0848941,13.9503118 29.0123353,12.6061647 30.1921,11.4696941 C31.3705118,10.3332235 32.7579529,9.43284118 34.3537471,8.76787059 C35.9502176,8.1029 37.6677765,7.77007647 39.5084529,7.77007647 C41.3775412,7.77007647 43.1093059,8.07313529 44.7057765,8.67925294 C46.3015706,9.28604706 47.6741294,10.1350176 48.8248059,11.2268412 C49.9748059,12.3186647 50.8738353,13.6059882 51.5205412,15.0888118 C52.1672471,16.5709588 52.4912765,18.1884 52.4912765,19.9411353 L52.4912765,22.0030176 L31.9603941,22.0030176 C32.3628941,23.7861941 33.2396,25.2236941 34.5911882,26.3161941 C35.9427765,27.4093706 37.6535706,27.9552824 39.7235706,27.9552824 C41.3626588,27.9552824 42.7859529,27.5527824 43.9941294,26.7477824 C45.2016294,25.9427824 46.1074235,24.8644882 46.7115118,23.5129 L51.4988941,26.2735765 C50.4057176,28.3151647 48.8748647,29.9610176 46.9056588,31.2118118 C44.9357765,32.4626059 42.5417471,33.0876647 39.7235706,33.0876647" id="Fill-5"></path>
                <path d="M68.4062618,7.81269412 L68.4062618,13.0316647 L63.2738794,13.0316647 L63.2738794,22.4779 C63.2738794,23.5704 63.3313794,24.4552235 63.4463794,25.1303412 C63.5613794,25.8061353 63.7981441,26.3236353 64.1580265,26.6828412 C64.5172324,27.0427235 65.0347324,27.2801647 65.7105265,27.3944882 C66.3856441,27.5094882 67.28535,27.5669882 68.4062618,27.5669882 L68.4062618,33.0450471 L67.5870559,33.0450471 C65.6313794,33.0450471 63.9997324,32.8718706 62.6914382,32.5268706 C61.3831441,32.1818706 60.3407029,31.6001059 59.5641147,30.7802235 C58.7888794,29.9610176 58.2341735,28.8820471 57.9040559,27.5453412 C57.5732618,26.2079588 57.4082029,24.5336941 57.4082029,22.5205176 L57.4082029,13.0316647 L53.0950265,13.0316647 L53.0950265,7.81269412 L68.4062618,7.81269412 Z M63.3042529,0.000202941176 L63.3042529,6.07423235 L57.4385765,6.07423235 L57.4385765,4.01167353 L63.3042529,0.000202941176 Z" id="Fill-204"></path>
            </g>
        </g>
    </g>
</svg>