<?xml version="1.0" encoding="UTF-8"?>
<svg width="116px" height="116px" viewBox="0 0 116 116" version="1.1" xmlns="http://www.w3.org/2000/svg" xmlns:xlink="http://www.w3.org/1999/xlink">
    <!-- Generator: Sketch 61 (89581) - https://sketch.com -->
    <title>icon-portal</title>
    <desc>Created with Sketch.</desc>
    <g id="icon-portal" stroke="none" stroke-width="1" fill="none" fill-rule="evenodd">
        <polygon id="Path" fill="#FFFFFF" fill-rule="nonzero" points="52.0685665 59.7201705 63.4011304 59.7201705 63.4011304 63.4976918 52.0685665 63.4976918"></polygon>
        <path d="M77.8034223,63.4976918 L67.1786518,63.4976918 L67.1786518,65.3864524 C67.1786518,66.4301894 66.333628,67.2752131 65.2898911,67.2752131 L50.1798059,67.2752131 C49.1360689,67.2752131 48.2910452,66.4301894 48.2910452,65.3864524 L48.2910452,63.4976918 L37.6662747,63.4976918 C35.2241661,63.4976918 33.0643881,61.9409398 32.2911767,59.6242568 L25.5,39.2472838 L25.5,80.4965376 C25.5,83.6208626 28.041957,86.1628196 31.166282,86.1628196 L84.303415,86.1628196 C87.4277399,86.1628196 89.969697,83.6208626 89.969697,80.4965376 L89.969697,39.2487594 L83.1780285,59.6242568 C82.4053089,61.9409398 80.2455309,63.4976918 77.8034223,63.4976918 Z" id="Path" fill="#FFFFFF" fill-rule="nonzero"></path>
        <path d="M65.2898911,29.5 L50.1798059,29.5 C47.055481,29.5 44.5135239,32.041957 44.5135239,35.166282 L44.5135239,37.0550426 L28.7497505,37.0550426 L35.8734276,58.4290255 C36.1316567,59.2017449 36.8527303,59.7201705 37.6662747,59.7201705 L48.2910452,59.7201705 L48.2910452,57.8314098 C48.2910452,56.7876729 49.1360689,55.9426491 50.1798059,55.9426491 L65.2898911,55.9426491 C66.333628,55.9426491 67.1786518,56.7876729 67.1786518,57.8314098 L67.1786518,59.7201705 L77.8034223,59.7201705 C78.6169666,59.7201705 79.3380403,59.2017449 79.5962694,58.4290255 L86.7204383,37.0550426 L70.9561731,37.0550426 L70.9561731,35.166282 C70.9561731,32.041957 68.414216,29.5 65.2898911,29.5 Z M48.2910452,37.0550426 L48.2910452,35.166282 C48.2910452,34.1240205 49.1375444,33.2775213 50.1798059,33.2775213 L65.2898911,33.2775213 C66.3321525,33.2775213 67.1786518,34.1240205 67.1786518,35.166282 L67.1786518,37.0550426 L48.2910452,37.0550426 Z" id="Shape" fill="#FFFFFF" fill-rule="nonzero"></path>
    </g>
</svg>