<?xml version="1.0" encoding="UTF-8"?>
<svg width="116px" height="116px" viewBox="0 0 116 116" version="1.1" xmlns="http://www.w3.org/2000/svg" xmlns:xlink="http://www.w3.org/1999/xlink">
    <!-- Generator: Sketch 61 (89581) - https://sketch.com -->
    <title>icon-mentores</title>
    <desc>Created with Sketch.</desc>
    <g id="icon-mentores" stroke="none" stroke-width="1" fill="none" fill-rule="evenodd">
        <path d="M73.4373807,22.3753873 C83.7836425,22.3753873 92.1709449,30.7626897 92.1709449,41.1089515 C92.1709449,46.212993 90.1297533,50.8402886 86.8191461,54.2190625 C85.60706,50.3385088 82.777332,47.1728382 79.1197467,45.5115603 C80.7256572,43.9681442 81.7250937,41.7983348 81.7250937,39.3950944 C81.7250937,34.7104347 77.9274266,30.9127676 73.2427669,30.9127676 C68.5581072,30.9127676 64.7604402,34.7104347 64.7604402,39.3950944 C64.7604402,41.7983348 65.7598766,43.9681442 67.3662476,45.5105234 C63.8040759,47.1290635 61.0272275,50.1737211 59.7647904,53.9154082 C59.2355952,53.3508788 58.7402241,52.7523678 58.2829422,52.124343 L49.1542945,56.9772281 C49.8278655,58.6833496 50.1979256,60.5424526 50.1979256,62.4879877 C50.1979256,64.4571911 49.8188068,66.3378466 49.1295771,68.0609464 L65.0293051,77.2405207 C66.9941396,74.763665 70.0302471,73.1751137 73.4373807,73.1751137 C79.3613924,73.1751137 84.1637527,77.977474 84.1637527,83.9014857 C84.1637527,89.8254973 79.3613924,94.6278576 73.4373807,94.6278576 C67.513369,94.6278576 62.7110087,89.8254973 62.7110087,83.9014857 C62.7110087,82.9492328 62.8350961,82.025962 63.0679832,81.1469611 L46.9357064,71.8330328 C46.5694807,72.2929458 46.1768227,72.7308745 45.7600311,73.1445202 C45.1878787,69.839716 43.1056714,67.0534626 40.250142,65.5227204 C41.2126306,64.3748181 41.7921736,62.8949588 41.7921736,61.2797399 C41.7921736,57.6303867 38.8337884,54.6720015 35.1844352,54.6720015 C31.5350821,54.6720015 28.5766968,57.6303867 28.5766968,61.2797399 C28.5766968,62.8949588 29.1562399,64.3748181 30.1189824,65.5216555 C27.2629507,67.0534533 25.1805788,69.8402515 24.6092565,73.1446604 C21.8680754,70.4243941 20.1709449,66.654384 20.1709449,62.4879877 C20.1709449,54.196266 26.8927135,47.4744974 35.1844352,47.4744974 C39.9664359,47.4744974 44.226261,49.7101966 46.9756875,53.193372 L56.1421091,48.3202624 C55.2155395,46.1005956 54.7038165,43.6645332 54.7038165,41.1089515 C54.7038165,30.7626897 63.0911189,22.3753873 73.4373807,22.3753873 Z M35.1844352,67.8874783 C39.1048269,67.8874783 42.2829322,71.0655837 42.2829322,74.9859753 C42.2829322,75.2414515 42.2694361,75.4937754 42.2431178,75.7422731 C40.1385342,76.8650617 37.7358062,77.5014781 35.1844352,77.5014781 C32.6330115,77.5014781 30.230237,76.8650354 28.1262092,75.7422478 C28.0994344,75.4937754 28.0859382,75.2414515 28.0859382,74.9859753 C28.0859382,71.0655837 31.2640436,67.8874783 35.1844352,67.8874783 Z M35.1844352,58.3060282 C36.8267709,58.3060282 38.1581469,59.6374043 38.1581469,61.2797399 C38.1581469,62.9220755 36.8267709,64.2534516 35.1844352,64.2534516 C33.5420996,64.2534516 32.2107235,62.9220755 32.2107235,61.2797399 C32.2107235,59.6374043 33.5420996,58.3060282 35.1844352,58.3060282 Z M73.2427669,47.8774212 C78.5185544,47.8774212 82.8930266,51.7364105 83.6974959,56.7857014 C80.7502319,58.7184116 77.2250806,59.8425156 73.4373807,59.8425156 C69.4988371,59.8425156 65.8441702,58.6270948 62.8279939,56.5508668 C63.729011,51.6171215 68.0491621,47.8774212 73.2427669,47.8774212 Z M73.2427669,34.5467943 C75.9204091,34.5467943 78.091067,36.7174522 78.091067,39.3950944 C78.091067,42.0727366 75.9204091,44.2433945 73.2427669,44.2433945 C70.5651247,44.2433945 68.3944668,42.0727366 68.3944668,39.3950944 C68.3944668,36.7174522 70.5651247,34.5467943 73.2427669,34.5467943 Z" id="Combined-Shape" fill="#FFFFFF"></path>
    </g>
</svg>