<?xml version="1.0" encoding="UTF-8"?>
<svg width="116px" height="116px" viewBox="0 0 116 116" version="1.1" xmlns="http://www.w3.org/2000/svg" xmlns:xlink="http://www.w3.org/1999/xlink">
    <!-- Generator: Sketch 61 (89581) - https://sketch.com -->
    <title>icon-campa</title>
    <desc>Created with Sketch.</desc>
    <g id="icon-campa" stroke="none" stroke-width="1" fill="none" fill-rule="evenodd">
        <g id="call-to-action" transform="translate(58.000000, 58.000000) rotate(-23.000000) translate(-58.000000, -58.000000) translate(25.500000, 25.500000)" fill="#FFFFFF" fill-rule="nonzero">
            <path d="M13.1009673,41.7675781 C12.3575974,41.7675781 11.2254333,41.64608 9.92713922,41.4601135 L9.92713922,55.9838486 C9.92713922,60.9156799 13.9707947,64.928093 18.9408111,64.928093 C23.9113235,64.928093 27.954979,60.9156799 27.954979,55.9838486 L27.954979,42.3096084 L26.3839341,41.7670822 L13.1009673,41.7670822 L13.1009673,41.7675781 Z" id="Path"></path>
            <path d="M65,24.8327256 C65,21.1798477 62.6057434,18.0734634 59.2940522,16.9720459 L59.2940522,32.6934052 C62.6057434,31.5919876 65,28.4856033 65,24.8327256 Z" id="Path"></path>
            <polygon id="Path" points="20.8758545 9.10491943 23.9971162 9.10491943 23.9971162 38.0859375 20.8758545 38.0859375"></polygon>
            <path d="M10.1379013,9.41932672 C6.79000854,9.92218018 2.20184326,10.8658982 1.51798245,11.0077285 C0.633773867,11.1907197 0,11.9692993 0,12.8723526 L0,34.3185044 C0,35.2215576 0.633773867,36.0001373 1.51748657,36.1831284 C2.20134738,36.3249588 6.79000854,37.2691726 10.1374053,37.7715302 L10.1374053,9.41932672 L10.1379013,9.41932672 Z" id="Path"></path>
            <polygon id="Path" points="13.9464951 9.10491943 17.0672607 9.10491943 17.0672607 38.0859375 13.9464951 38.0859375"></polygon>
            <path d="M53.0872344,0.105628936 L27.8057099,8.82720947 L27.8057099,38.3631516 L53.0867386,47.085228 C54.3235398,47.5117112 55.6124116,46.5932846 55.6124116,45.2850723 L55.6124116,1.90578464 C55.6124116,0.597572295 54.3235398,-0.320854219 53.0872344,0.105628936 L53.0872344,0.105628936 Z" id="Path"></path>
        </g>
    </g>
</svg>