<?xml version="1.0" encoding="UTF-8"?>
<svg width="116px" height="116px" viewBox="0 0 116 116" version="1.1" xmlns="http://www.w3.org/2000/svg" xmlns:xlink="http://www.w3.org/1999/xlink">
    <!-- Generator: Sketch 61 (89581) - https://sketch.com -->
    <title>icon-podcast</title>
    <desc>Created with Sketch.</desc>
    <g id="icon-podcast" stroke="none" stroke-width="1" fill="none" fill-rule="evenodd">
        <path d="M61.8213054,29.1897569 C68.7415763,22.270081 79.9965353,22.270081 86.9168062,29.1897569 C93.837077,36.1100278 93.837077,47.3655818 86.9168062,54.2852577 L86.9168062,54.2852577 L64.2063953,76.9956685 L72.5711656,85.3610338 L80.9365308,76.9956685 C82.0907026,75.8414968 83.9629595,75.839712 85.118916,76.9956685 C86.2760624,78.15222 86.2736826,80.0244769 85.118916,81.1780537 L85.118916,81.1780537 L74.6629531,91.6346115 C61.5315726,104.766587 40.6000141,105.412685 26.6696374,93.6193109 L26.6696374,93.6193109 L4,116 L-0.182385147,111.81702 L22.4872522,89.4369257 C10.6944729,75.507144 11.3405711,54.5749905 24.4719516,41.4442049 L24.4719516,41.4442049 L34.9285094,30.9876471 C36.0826811,29.8328805 37.9543431,29.8310957 39.1108946,30.9876471 C40.267446,32.1436036 40.2656612,34.0158605 39.1108946,35.1700323 L39.1108946,35.1700323 L30.7455293,43.5353975 L39.1108946,51.9001678 Z M26.6720171,47.8266555 C17.1709231,59.4308408 17.8318946,76.6303791 28.6567165,87.4546061 C39.4809434,98.278833 56.6781021,98.9380197 68.2840721,89.4393055 L68.2840721,89.4393055 L59.8354161,80.9906495 C52.909196,85.9131324 43.2266471,85.2938062 37.019702,79.087456 C30.8127569,72.8805109 30.1916459,63.1955823 35.1165085,56.271147 L35.1165085,56.271147 Z M51.8482504,57.7402767 C50.9671533,57.6534163 50.0848664,57.6986313 49.2001997,57.8765165 C48.3143432,58.0538068 47.4493093,58.3631724 46.6039083,58.8052083 C45.7585072,59.2472442 44.9696249,59.8290895 44.2372613,60.5501494 C43.2806076,61.4925246 42.5547883,62.5413931 42.0586134,63.6961597 C41.5624386,64.8515213 41.3018576,66.0306802 41.2780602,67.2312568 C41.2536679,68.4330232 41.46011,69.6068278 41.8961965,70.7514805 C42.332878,71.8973232 43.0051532,72.9307233 43.9124274,73.8528708 C44.806613,74.7607399 45.8227601,75.4413443 46.9614635,75.8946839 C48.099572,76.3492134 49.2662374,76.5693389 50.4608646,76.5556554 C51.6554918,76.5431618 52.8376254,76.3010237 54.0078603,75.8298361 C55.1775003,75.3586485 56.2406472,74.652462 57.1973009,73.7100867 C57.9594111,72.9592802 58.572193,72.1614738 59.0350516,71.3166677 C59.4973152,70.4712667 59.8173896,69.6074227 59.994085,68.7251358 C60.1713753,67.8446336 60.2159953,66.9552075 60.129135,66.059832 C60.0416797,65.1638616 59.8364275,64.2982328 59.5133784,63.4605659 L59.5133784,63.4605659 L55.7236496,65.0401153 C56.0877492,66.0068829 56.1769893,67.0022073 55.9931547,68.0248986 C55.8081303,69.0487798 55.2899428,69.9792564 54.4379975,70.819303 C53.885304,71.3636675 53.2725221,71.772982 52.6014367,72.0478415 C51.9297563,72.3232958 51.2527216,72.4648901 50.5697375,72.474409 C49.8873483,72.4833331 49.224592,72.3566121 48.5820634,72.0912716 C47.9383449,71.8277159 47.3683983,71.4427937 46.8716285,70.9382898 C46.3611752,70.4201024 45.9786328,69.8370672 45.7240011,69.1891842 C45.4693694,68.543086 45.3521674,67.8779499 45.3718002,67.1955608 C45.391433,66.5137665 45.5401665,65.8420862 45.8180006,65.1823045 C46.0958347,64.5225229 46.5105036,63.9198548 47.0637921,63.3754903 C47.8705225,62.5806587 48.7813662,62.0779396 49.7963234,61.867333 C50.8100908,61.6567264 51.7982759,61.741207 52.7608789,62.1207748 L52.7608789,62.1207748 L54.4177698,58.3768559 C53.5860522,58.0401233 52.7293474,57.8283269 51.8482504,57.7402767 Z M64.5698999,44.0670899 C63.4133485,44.0885075 62.2651261,44.3490885 61.1252328,44.8512127 C59.9847445,45.352742 58.9293318,46.081536 57.9578048,47.0387846 C57.0011512,47.9811599 56.2789014,49.0330029 55.7892708,50.1955037 C55.3008301,51.3580045 55.0402491,52.5365685 55.0093125,53.7306008 C54.977781,54.9246331 55.1836282,56.0984377 55.6274488,57.2508246 C56.0706746,58.4032115 56.7465195,59.4407762 57.6543885,60.3629237 C58.5479792,61.2701978 59.5569871,61.9585363 60.6802222,62.4267493 C61.8040523,62.8949623 62.9594139,63.1269865 64.146307,63.1217226 C65.3332001,63.1156827 66.5200932,62.8628358 67.7052014,62.3619015 C68.8903097,61.862157 69.9980766,61.1036164 71.0296919,60.0880642 C72.4944191,58.6459445 73.4183515,57.0955468 73.8020838,55.4368712 C74.1852212,53.7787905 74.1388164,52.1397476 73.6616794,50.5185528 L73.6616794,50.5185528 L69.760698,51.534105 C70.138481,52.5460875 70.219392,53.5705636 70.0040259,54.6069384 C69.7886599,55.6433132 69.2544093,56.581524 68.4024639,57.4203807 C67.3262286,58.479958 66.1571835,59.0719172 64.8953288,59.1956634 C63.6340689,59.3194097 62.4418214,59.0213478 61.3197762,58.3002879 L61.3197762,58.3002879 L71.992295,47.7913759 L70.9362873,46.7193051 C70.039722,45.8084613 69.0432077,45.1332114 67.9479345,44.6941502 C66.8526612,44.2544941 65.7270463,44.0456723 64.5698999,44.0670899 Z M63.5115126,47.9246411 C64.5205204,47.6640601 65.4920474,47.7836418 66.4254987,48.2827913 L66.4254987,48.2827913 L58.9828759,55.6123767 C58.6027131,54.6890393 58.5461944,53.6978795 58.8151045,52.640087 C59.0834197,51.5822946 59.6735941,50.6048182 60.5850328,49.7064681 C61.5268131,48.7789662 62.5025047,48.1852222 63.5115126,47.9246411 Z M73.0008269,32.2685397 L65.0423964,40.1061986 L67.7136495,42.8190971 L69.9553604,40.6112975 L74.8129954,45.5438942 C75.842826,46.5891931 76.7857962,47.3756957 77.642501,47.9016172 C78.4986108,48.4269438 79.3386574,48.704183 80.161451,48.7327398 C80.9842445,48.7612966 81.8242912,48.5304623 82.680401,48.0402368 C83.5377007,47.5500113 84.4741267,46.8045591 85.4908687,45.8032854 L85.4908687,45.8032854 L85.9168413,45.383857 L83.112323,42.5365035 C82.5298828,43.1106147 82.033113,43.5407519 81.6232035,43.8269151 C81.2132941,44.1130783 80.8224225,44.2552675 80.4511838,44.2516979 C80.08054,44.2493181 79.6926431,44.1017745 79.2868982,43.8090671 C78.8817482,43.5163596 78.3992569,43.0868173 77.840019,42.5186555 L77.840019,42.5186555 L73.0049914,37.6086662 L75.67208,34.9814382 L73.0008269,32.2685397 Z M66.3493471,30.8193998 L65.3540228,35.9072743 L66.4100304,36.9793452 L69.4590665,33.9767139 L66.3493471,30.8193998 Z" id="Combined-Shape" fill="#FFFFFF"></path>
    </g>
</svg>