<?xml version="1.0" encoding="UTF-8"?>
<svg width="116px" height="116px" viewBox="0 0 116 116" version="1.1" xmlns="http://www.w3.org/2000/svg" xmlns:xlink="http://www.w3.org/1999/xlink">
    <!-- Generator: Sketch 61 (89581) - https://sketch.com -->
    <title>icon-investigacion</title>
    <desc>Created with Sketch.</desc>
    <g id="icon-investigacion" stroke="none" stroke-width="1" fill="none" fill-rule="evenodd">
        <path d="M36.9053192,65.0115166 L31.2330933,70.6837426 L42.319809,81.7714729 L47.9915276,76.0992469 C43.3735847,73.4716567 39.5324021,69.6299668 36.9053192,65.0115166 Z" id="Path" fill="#FFFFFF" fill-rule="nonzero"></path>
        <path d="M23.7978096,78.1200409 C20.7344017,81.1839562 20.7338943,86.1433486 23.7978096,89.2072639 C26.8541145,92.2640762 31.827713,92.2645836 34.8845253,89.2072639 L39.5643654,84.5269165 L28.478157,73.439186 L23.7978096,78.1200409 Z" id="Path" fill="#FFFFFF" fill-rule="nonzero"></path>
        <path d="M62.4866523,25 C48.4187202,25 36.9733047,36.4459229 36.9733047,50.5153771 C36.9733047,64.5843239 48.4187202,76.0307542 62.4866523,76.0307542 C76.5550918,76.0307542 88,64.5843239 88,50.5153771 C88,36.4459229 76.5545845,25 62.4866523,25 Z M52.5886999,58.3065361 C52.5886999,59.5711136 51.5975498,60.5976881 50.3720332,60.5976881 C49.1488257,60.5976881 48.1553666,59.5711136 48.1553666,58.3065361 L48.1553666,50.9749689 C48.1553666,49.7109878 49.1488257,48.6844133 50.3720332,48.6844133 C51.5975498,48.6844133 52.5886999,49.7103914 52.5886999,50.9749689 L52.5886999,58.3065361 Z M60.5686999,58.3065361 C60.5686999,59.5711136 59.4784348,60.5976881 58.1303666,60.5976881 C56.7848383,60.5976881 55.6920332,59.5711136 55.6920332,58.3065361 L55.6920332,43.3397837 C55.6920332,42.0752062 56.7848383,41.0486315 58.1303666,41.0486315 C59.4784348,41.0486315 60.5686999,42.0752062 60.5686999,43.3397837 L60.5686999,58.3065361 Z M68.1053666,58.3065361 C68.1053666,59.5711136 67.0151014,60.5976881 65.6670332,60.5976881 C64.321505,60.5976881 63.2286999,59.5711136 63.2286999,58.3065361 L63.2286999,46.3938578 C63.2286999,45.1292802 64.321505,44.1033022 65.6670332,44.1033022 C67.0151014,44.1033022 68.1053666,45.1292802 68.1053666,46.3938578 L68.1053666,58.3065361 Z M75.6420332,58.3065361 C75.6420332,59.5711136 74.6508831,60.5976881 73.4253666,60.5976881 C72.2021591,60.5976881 71.2086999,59.5711136 71.2086999,58.3065361 L71.2086999,38.758076 C71.2086999,37.4940951 72.2021591,36.4675204 73.4253666,36.4675204 C74.6508831,36.4675204 75.6420332,37.4934984 75.6420332,38.758076 L75.6420332,58.3065361 Z" id="Shape" fill="#FFFFFF" fill-rule="nonzero"></path>
    </g>
</svg>