<?xml version="1.0" encoding="UTF-8"?>
<svg width="30px" height="31px" viewBox="0 0 30 31" version="1.1" xmlns="http://www.w3.org/2000/svg" xmlns:xlink="http://www.w3.org/1999/xlink">
    <!-- Generator: Sketch 61 (89581) - https://sketch.com -->
    <title>Facebook Copy</title>
    <desc>Created with Sketch.</desc>
    <g id="Page-1" stroke="none" stroke-width="1" fill="none" fill-rule="evenodd">
        <path d="M15,0.223843962 C23.2842712,0.223843962 30,6.93957272 30,15.223844 C30,23.5081152 23.2842712,30.223844 15,30.223844 C6.71572875,30.223844 9.9475983e-14,23.5081152 9.9475983e-14,15.223844 C9.9475983e-14,6.93957272 6.71572875,0.223843962 15,0.223843962 Z M18.7166573,6.68733542 L17.0108567,6.68733542 C14.932075,6.68733542 12.6067907,7.95620391 12.6067907,10.2865085 L12.6067907,10.2865085 L12.6067907,12.2945425 L10.9348854,12.2945425 C10.7160222,12.2945425 10.5388219,12.4724048 10.5396575,12.6912681 L10.5396575,12.6912681 L10.547693,14.7694319 C10.5485315,14.9871035 10.7252022,15.1631122 10.9428738,15.1631122 L10.9428738,15.1631122 L12.6178243,15.1631122 L12.6067466,23.6745063 L16.3206364,23.6745063 L16.3317141,15.1632004 L18.5584349,15.1632004 C18.7586734,15.1632004 18.9273115,15.0133636 18.9508794,14.8144933 L18.9508794,14.8144933 L19.1971944,12.7363294 C19.2250874,12.5012688 19.0414435,12.2945867 18.8047499,12.2945867 L18.8047499,12.2945867 L16.3206364,12.2945867 L16.3206364,10.5561706 C16.3206364,9.76779504 16.5395438,9.23058922 17.6700504,9.23058922 L17.6700504,9.23058922 L18.716878,9.23010374 C18.9350351,9.22997134 19.1118823,9.05308004 19.1118823,8.83487879 L19.1118823,8.83487879 L19.1118823,7.08256037 C19.1118823,6.86427085 18.9349027,6.68733542 18.7166573,6.68733542 L18.7166573,6.68733542 Z" id="Facebook-Copy" fill="#999999"></path>
    </g>
</svg>