<?xml version="1.0" encoding="UTF-8"?>
<svg width="31px" height="31px" viewBox="0 0 31 31" version="1.1" xmlns="http://www.w3.org/2000/svg" xmlns:xlink="http://www.w3.org/1999/xlink">
    <!-- Generator: Sketch 61 (89581) - https://sketch.com -->
    <title>Twitter Copy</title>
    <desc>Created with Sketch.</desc>
    <g id="Page-1" stroke="none" stroke-width="1" fill="none" fill-rule="evenodd">
        <path d="M15.6,0.223843962 C23.8842712,0.223843962 30.6,6.93957272 30.6,15.223844 C30.6,23.5081152 23.8842712,30.223844 15.6,30.223844 C7.31572875,30.223844 0.6,23.5081152 0.6,15.223844 C0.6,6.93957272 7.31572875,0.223843962 15.6,0.223843962 Z M19.5134986,8.97280875 C19.1100313,8.97280875 18.7026741,9.03569519 18.3027077,9.15973924 C17.0634774,9.5441029 16.1073009,10.5663209 15.8073045,11.8275075 C15.6947572,12.3005605 15.6642865,12.7740457 15.7166702,13.2347807 C15.7226779,13.2877263 15.697653,13.3246802 15.6822232,13.3420118 C15.6551236,13.3723961 15.6167002,13.3898141 15.5768073,13.3898141 L15.563236,13.3891658 L15.563236,13.3891658 C12.9636307,13.1476455 10.6087801,11.9373482 8.89525392,9.97019628 L8.6754201,9.70933649 C8.59984523,9.61660909 8.4648266,9.61311084 8.38353598,9.68991429 L8.34789195,9.7349665 C8.00929924,10.3158557 7.83036463,10.9802477 7.83036463,11.6563094 C7.83036463,12.6924013 8.24662533,13.6688052 8.96966814,14.3806106 C8.74162375,14.3265412 8.51907382,14.2491568 8.30672267,14.1497886 L8.09794536,14.0431416 C7.98222134,13.9788505 7.84316815,14.043118 7.80896799,14.1615306 L7.80110406,14.215377 C7.7821733,15.7545605 8.68332953,17.1241451 10.0332918,17.7408644 L9.95169072,17.7418153 L9.95169072,17.7418153 C9.80903286,17.7418153 9.66518403,17.7326332 9.52194989,17.7144356 L9.30778542,17.6803983 C9.17746353,17.6555139 9.0653748,17.7605779 9.07037036,17.8839701 L9.07996794,17.9376493 C9.51814165,19.3056347 10.6959982,20.3139788 12.1055189,20.54292 C10.9357015,21.328201 9.57342121,21.7424303 8.15555885,21.7424303 L7.71353847,21.742171 C7.57734935,21.742171 7.46216559,21.8309467 7.42745919,21.962857 C7.39327144,22.0927791 7.45624432,22.2298326 7.57237894,22.2973869 C9.17008356,23.2271986 10.9924938,23.7186205 12.8433865,23.7186205 C14.4635228,23.7186205 15.9790212,23.3971001 17.3478279,22.7630492 C18.6026609,22.181771 19.7115369,21.3508487 20.6436393,20.2933624 C21.5119476,19.3082712 22.1909483,18.1710855 22.6617106,16.9134431 C23.1104734,15.7146243 23.3476699,14.4354579 23.3476699,13.2142075 L23.3476699,13.1560322 C23.3476266,12.9599388 23.436316,12.7754287 23.5910469,12.6498287 C24.0943237,12.2412058 24.5418719,11.7705352 24.9247097,11.2476427 L25.1106945,10.9818901 C25.2219019,10.8155328 25.0465114,10.607035 24.8635141,10.6882039 C24.4696418,10.8628597 24.0607719,11.000648 23.6412264,11.1004019 C24.045731,10.7160166 24.362412,10.2472823 24.5666291,9.72523841 L24.6471933,9.49833195 C24.6969454,9.34269821 24.552214,9.20577859 24.4083971,9.24311436 L24.3548902,9.26558728 C23.7712349,9.61178687 23.1425434,9.87150139 22.4862337,10.0375994 C22.448156,10.0472377 22.4088682,10.0521216 22.3694507,10.0521216 C22.2499017,10.0521216 22.1336806,10.0077337 22.0422683,9.92716994 C21.3439911,9.31174722 20.4459036,8.97280875 19.5134986,8.97280875 Z" id="Twitter-Copy" fill="#999999"></path>
    </g>
</svg>