<?xml version="1.0" encoding="UTF-8"?>
<svg width="31px" height="31px" viewBox="0 0 31 31" version="1.1" xmlns="http://www.w3.org/2000/svg" xmlns:xlink="http://www.w3.org/1999/xlink">
    <!-- Generator: Sketch 61 (89581) - https://sketch.com -->
    <title>linkedin copy</title>
    <desc>Created with Sketch.</desc>
    <g id="Page-1" stroke="none" stroke-width="1" fill="none" fill-rule="evenodd">
        <path d="M15.4090147,0 C23.8169115,0 30.6328586,6.81594711 30.6328586,15.223844 C30.6328586,23.6317408 23.8169115,30.4476879 15.4090147,30.4476879 C7.00111783,30.4476879 0.185170726,23.6317408 0.185170726,15.223844 C0.185170726,6.81594711 7.00111783,0 15.4090147,0 Z M12.2304541,11.5228649 L8.73045408,11.5228649 L8.73045408,21.6228649 L12.2304541,21.6228649 L12.2304541,11.5228649 Z M17.1304541,11.5228649 L14.3304541,11.5228649 L14.3304541,21.6228649 L17.3304541,21.6228649 L17.3304541,16.6228649 C17.3304541,15.3228649 17.5304541,14.0228649 19.2304541,14.0228649 C20.8304541,14.0228649 20.9304541,15.5228649 20.9304541,16.7228649 L20.9304541,21.6228649 L23.9304541,21.6228649 L23.9304541,16.0228649 C23.9304541,15.5228649 23.9304541,15.0228649 23.8304541,14.6228649 C23.6304541,12.7228649 22.7304541,11.5228649 20.1304541,11.5228649 C18.7137874,11.5228649 17.6539109,12.05805 17.2035508,12.791452 L17.1304541,12.9228649 L17.1304541,11.5228649 Z M10.5304541,6.42286485 C9.53634153,6.42286485 8.73045408,7.2287523 8.73045408,8.22286485 C8.73045408,9.2169774 9.53634153,10.0228649 10.5304541,10.0228649 C11.5245666,10.0228649 12.3304541,9.2169774 12.3304541,8.22286485 C12.3304541,7.2287523 11.5245666,6.42286485 10.5304541,6.42286485 Z" id="linkedin-copy" fill="#999999" fill-rule="nonzero"></path>
    </g>
</svg>