<?xml version="1.0" encoding="UTF-8"?>
<svg width="31px" height="31px" viewBox="0 0 31 31" version="1.1" xmlns="http://www.w3.org/2000/svg" xmlns:xlink="http://www.w3.org/1999/xlink">
    <!-- Generator: Sketch 61 (89581) - https://sketch.com -->
    <title>social-youtube</title>
    <desc>Created with Sketch.</desc>
    <g id="Page-1" stroke="none" stroke-width="1" fill="none" fill-rule="evenodd">
        <g id="reporte19" transform="translate(-319.000000, -9800.000000)" fill="#999999" fill-rule="nonzero">
            <g id="youtube-logotype" transform="translate(319.000000, 9800.000000)">
                <path d="M15.225,3.64153152e-13 C23.6335611,3.64153152e-13 30.45,6.81643887 30.45,15.225 C30.45,23.6335611 23.6335611,30.45 15.225,30.45 C6.81643887,30.45 1.08357767e-13,23.6335611 1.08357767e-13,15.225 C1.08357767e-13,6.81643887 6.81643887,3.64153152e-13 15.225,3.64153152e-13 Z M16.0240539,13.44732 L14.4313476,13.44732 C12.5722774,13.4499393 10.7095999,13.4766171 8.86647928,13.6824077 C7.97712123,13.7814675 7.23884501,14.4480967 7.03106854,15.3514726 C6.73513504,16.6380046 6.73139693,18.042287 6.73139693,19.366823 L6.7318033,19.8110279 C6.73505428,21.0020296 6.76431304,22.2388663 7.02764194,23.3821734 C7.23510691,24.2855494 7.97400614,24.951867 8.86336419,25.0512384 C10.9694762,25.2864276 13.101755,25.2876737 15.2240655,25.2864276 L16.0205847,25.286326 C17.879689,25.2837068 19.7416851,25.257029 21.5850783,25.0512384 C22.4744363,24.951867 23.213024,24.2852379 23.421112,23.3821734 C23.717357,22.0959529 23.7186032,20.6913591 23.7186032,19.366823 L23.7182622,18.9226283 C23.7153496,17.7316779 23.6876598,16.4950566 23.4251616,15.3514726 C23.2167621,14.4480967 22.4778629,13.781779 21.5885049,13.6824077 C19.4820813,13.4472184 17.3501141,13.4459724 15.2278036,13.4472184 Z M16.5934588,15.278268 L16.5934588,17.7616174 C16.9245928,17.3535407 17.2769095,17.1473217 17.6544583,17.1473217 C18.062535,17.1473217 18.337909,17.3622629 18.4746614,17.7871611 C18.5435049,18.0148742 18.5787054,18.3893079 18.5787054,18.9257263 L18.5787054,18.9257263 L18.5787054,21.1816742 C18.5787054,21.7059437 18.5435049,22.0831811 18.4746614,22.3233545 C18.3375974,22.7451376 18.0628465,22.9600788 17.6544583,22.9600788 C17.2890583,22.9600788 16.9370532,22.7569749 16.5934588,22.3330113 L16.5934588,22.3330113 L16.5934588,22.88189 L15.5670368,22.88189 L15.5670368,15.278268 L16.5934588,15.278268 Z M12.752865,17.2164767 L12.7529082,21.4983259 C12.7531246,21.6672474 12.7544225,21.7587964 12.7622102,21.786313 C12.7871309,21.9458056 12.8653197,22.0264864 13.0023836,22.0264864 C13.2086026,22.0264864 13.4238552,21.8679284 13.6515683,21.5461396 L13.6515683,21.5461396 L13.6515683,17.2164767 L14.6789248,17.2164767 L14.6789248,22.8822015 L13.6515683,22.8822015 L13.6515683,22.2641678 C13.2434916,22.7320542 12.8559744,22.9600788 12.4781141,22.9600788 C12.1479146,22.9600788 11.91989,22.8255069 11.8167806,22.5382957 C11.760709,22.3663427 11.7261315,22.0959529 11.7261315,21.6956639 L11.7261315,21.6956639 L11.7261315,17.2164767 L12.752865,17.2164767 Z M20.9240563,17.1473217 C21.4392921,17.1473217 21.8476803,17.3404573 22.1345801,17.7273514 C22.3498327,18.0139396 22.4523192,18.4569054 22.4523192,19.0621673 L22.4523192,19.0621673 L22.4523192,20.2356215 L20.3988522,20.2356215 L20.3988522,21.2405494 C20.3988522,21.7645074 20.5714281,22.0261749 20.9240563,22.0261749 C21.17669,22.0261749 21.3243453,21.889111 21.382909,21.6146716 C21.3919427,21.5589115 21.4053376,21.3305754 21.4053376,20.9193836 L21.4053376,20.9193836 L22.4523192,20.9193836 L22.4523192,21.0685964 C22.4523192,21.3997304 22.4401703,21.6274435 22.4305136,21.7302414 C22.3962476,21.957643 22.3152552,22.1635504 22.1906517,22.3454716 C21.9065555,22.7569749 21.4857069,22.9597673 20.9496,22.9597673 C20.4125586,22.9597673 20.0035473,22.7663202 19.7073023,22.3794261 C19.488623,22.0956414 19.3774143,21.6495606 19.3774143,21.0474138 L19.3774143,21.0474138 L19.3774143,19.0627903 C19.3774143,18.4575284 19.4767857,18.0145627 19.6945304,17.7279744 C19.991087,17.3401458 20.3988522,17.1473217 20.9240563,17.1473217 Z M11.5769187,15.2785795 L11.5769187,16.3486128 L10.3473928,16.3486128 L10.3473928,22.88189 L9.20540102,22.88189 L9.20540102,16.3486128 L7.99830384,16.3486128 L7.99830384,15.2785795 L11.5769187,15.2785795 Z M17.1049565,18.0709458 C16.9364302,18.0709458 16.7647887,18.1513151 16.5931473,18.3210875 L16.5931473,18.3210875 L16.5931473,21.7738527 C16.7647887,21.9458056 16.9364302,22.0264864 17.1049565,22.0264864 C17.401513,22.0264864 17.5516604,21.7741642 17.5516604,21.2620435 L17.5516604,21.2620435 L17.5516604,18.844111 C17.5516604,18.3332363 17.4012015,18.0709458 17.1049565,18.0709458 Z M20.914711,18.0712573 C20.5717396,18.0712573 20.3994752,18.3332363 20.3994752,18.8571944 L20.3994752,18.8571944 L20.3994752,19.3814639 L21.4262087,19.3814639 L21.4262087,18.8571944 C21.4262087,18.3335478 21.2542558,18.0712573 20.914711,18.0712573 Z M17.9528839,7.12109463 L16.9183627,7.12109463 L16.9183627,11.6485657 C16.9183627,12.0525928 16.9529402,12.3264092 17.0102578,12.4999197 C17.1143018,12.789623 17.3448184,12.9251294 17.678756,12.9251294 C18.0572394,12.9251294 18.4509867,12.6955473 18.8640476,12.2220537 L18.8640476,12.2220537 L18.8640476,12.8463176 L19.9013724,12.8463176 L19.9013724,7.12109463 L18.8640476,7.12109463 L18.8640476,11.4971724 C18.6338425,11.8220762 18.4160977,11.9828148 18.2086327,11.9828148 C18.0696997,11.9828148 17.9880844,11.9005765 17.9653442,11.7398379 C17.9528839,11.7058834 17.9528839,11.5797223 17.9528839,11.3364338 L17.9528839,7.12109463 Z M14.5328271,7.05193964 C14.0157223,7.05193964 13.6116951,7.24756726 13.3247954,7.63913402 C13.1042471,7.92852583 13.0002031,8.37585269 13.0002031,8.98796777 L13.0002031,8.98796777 L13.0002031,10.9928394 C13.0002031,11.6012164 13.1042471,12.0529043 13.3247954,12.3391811 C13.6116951,12.7298133 14.0157223,12.9251294 14.5328271,12.9251294 C15.052424,12.9251294 15.4561396,12.7298133 15.7430394,12.3391811 C15.9604726,12.0529043 16.0645166,11.6015279 16.0645166,10.9928394 L16.0645166,10.9928394 L16.0645166,8.98796777 C16.0645166,8.37585269 15.9604726,7.92821432 15.7430394,7.63913402 C15.4561396,7.24756726 15.052424,7.05193964 14.5328271,7.05193964 Z M10.2259043,5.16357238 L9.01569207,5.16357238 C9.25804604,5.87599335 9.5106798,6.5912179 9.75303376,7.30426189 C10.1221719,8.37585269 10.352377,9.1835954 10.4567325,9.73496624 L10.4567325,9.73496624 L10.4567325,12.8466292 L11.6068235,12.8466292 L11.6068235,9.73496624 L12.9908578,5.16357238 L11.8273719,5.16357238 L11.0426808,8.18053657 L10.2259043,5.16357238 Z M14.5328271,7.98584348 C14.8670762,7.98584348 15.0275033,8.24969156 15.0275033,8.77956829 L15.0275033,8.77956829 L15.0275033,11.187844 C15.0275033,11.7174092 14.8670762,11.9825033 14.5328271,11.9825033 C14.1982665,11.9825033 14.0375279,11.7177207 14.0375279,11.187844 L14.0375279,11.187844 L14.0375279,8.77956829 C14.0375279,8.25000307 14.1982665,7.98584348 14.5328271,7.98584348 Z" id="social-youtube"></path>
            </g>
        </g>
    </g>
</svg>