<?xml version="1.0" encoding="UTF-8"?>
<svg width="31px" height="31px" viewBox="0 0 31 31" version="1.1" xmlns="http://www.w3.org/2000/svg" xmlns:xlink="http://www.w3.org/1999/xlink">
    <!-- Generator: Sketch 61 (89581) - https://sketch.com -->
    <title>Combined Shape</title>
    <desc>Created with Sketch.</desc>
    <g id="Page-1" stroke="none" stroke-width="1" fill="none" fill-rule="evenodd">
        <g id="reporte19" transform="translate(-222.000000, -9800.000000)" fill="#999999" fill-rule="nonzero">
            <path d="M237.223844,9800.17882 C245.631741,9800.17882 252.447688,9806.99477 252.447688,9815.40266 C252.447688,9823.81056 245.631741,9830.62651 237.223844,9830.62651 C228.815947,9830.62651 222,9823.81056 222,9815.40266 C222,9806.99477 228.815947,9800.17882 237.223844,9800.17882 Z M240.888425,9806.15356 L233.559201,9806.15356 C230.580611,9806.15356 228.157398,9808.57677 228.157398,9811.55536 L228.157398,9818.88459 C228.157398,9821.86305 230.580611,9824.28645 233.559263,9824.28645 L240.888487,9824.28645 C243.866953,9824.28645 246.290352,9821.86318 246.290352,9818.88459 L246.290352,9811.55536 C246.290352,9808.57677 243.867015,9806.15356 240.888425,9806.15356 Z M240.888487,9807.97772 C242.864355,9807.97772 244.466136,9809.57962 244.466136,9811.55543 L244.466136,9818.88465 C244.466136,9820.86052 242.864355,9822.4623 240.888487,9822.4623 L233.559263,9822.4623 C231.583395,9822.4623 229.981614,9820.86052 229.981614,9818.88465 L229.981614,9811.55543 C229.981614,9809.57956 231.583395,9807.97772 233.559263,9807.97772 L240.888487,9807.97772 Z M237.223844,9810.53012 C234.637903,9810.53012 232.533957,9812.63407 232.533957,9815.22001 C232.533957,9817.80576 234.637903,9819.90971 237.223844,9819.90971 C239.809785,9819.90971 241.913545,9817.80595 241.913545,9815.22001 C241.913545,9812.63407 239.809785,9810.53012 237.223844,9810.53012 Z M237.223844,9812.35427 C238.806506,9812.35427 240.089391,9813.63722 240.089391,9815.22001 C240.089391,9816.80267 238.806506,9818.08555 237.223844,9818.08555 C235.641182,9818.08555 234.358111,9816.80273 234.358111,9815.22001 C234.358111,9813.63728 235.641182,9812.35427 237.223844,9812.35427 Z M241.922517,9809.4417 C241.301926,9809.4417 240.798709,9809.94486 240.798709,9810.56551 C240.798709,9811.1861 241.301926,9811.68932 241.922517,9811.68932 C242.54317,9811.68932 243.046325,9811.1861 243.046325,9810.56551 C243.046325,9809.94474 242.543294,9809.4417 241.922517,9809.4417 Z" id="Combined-Shape"></path>
        </g>
    </g>
</svg>